<svg xmlns="http://www.w3.org/2000/svg" xmlns:xlink="http://www.w3.org/1999/xlink" width="906" height="339" viewBox="0 0 906 339"><defs><style>.a{opacity:0.28;}.b{clip-path:url(#a);}.c{fill:#f6f6f6;}.d{fill:#ffb27d;}.e{fill:#163560;}.f{fill:#5fabb7;}.g{fill:#ef9e67;}.h{fill:#a53d38;}.i{fill:#c45446;}.j{fill:#912f2f;}.k{fill:#bc3f3f;}.l{fill:#233862;}.m{fill:#ed985f;}.n{fill:#b64c41;}.o{fill:#2b478b;}.p{fill:#2f5196;}.q{fill:#27437c;}.r{fill:#ee9849;}.s{fill:#e58638;}.t{fill:#e8945b;}.u{fill:#1c468a;}.v{fill:#466aa5;}.w{fill:#4b93e5;}.x{fill:#2c3a64;}.y{fill:#aa413e;}.z{fill:#ed975d;}.aa{fill:#f99746;}.ab{fill:#b56f40;}.ac{fill:#99592e;}.ad{fill:#efda53;}.ae{fill:#dec840;}.af{fill:#05204c;}.ag{fill:#2d323e;}.ah{fill:#e2915a;}.ai{fill:#e9f3fe;}.aj{fill:#22407a;}.ak{fill:#d9e9f9;}.al{fill:#ba4c43;}.am{fill:#c65447;}</style><clipPath id="a"><rect class="a" width="906" height="339" transform="translate(763 9809)"/></clipPath></defs><g class="b" transform="translate(-763 -9809)"><path class="c" d="M697.157,610.395c299.621,0,199.851-265.117,199.851-487.538S826.7,47.96,495.752,47.96,0-56.792,0,165.629,397.537,610.395,697.157,610.395Z" transform="matrix(-1, 0.017, -0.017, -1, 1691.31, 10412.301)"/><g transform="translate(1400.798 9896.565)"><g transform="translate(0 0)"><path class="d" d="M614.216,649.479l-6.348,26.736-9.509-.054-.349-26.682Z" transform="translate(-484.124 -314.364)"/><path class="d" d="M714.278,650.285l-18.062,25.6-7.04-9.039,10.871-20.077Z" transform="translate(-664.168 -314.032)"/><path class="e" d="M555.048,268.807a18.425,18.425,0,0,1,10.148.1,4.666,4.666,0,0,0-1.864-1.392c1.722.088,5.121,2.5,5.121,2.5,25.073-4.275,21.824,30.719,19.731,38.579s5.69,12.133,16.531,20.843c20.683,16.62,19.483,33.05,19.483,33.05-.2.069-.414.154-.641.25-.755-2.172-2.378-6.293-4.257-7.243a83.981,83.981,0,0,1,1.628,8.438c-7.858,3.809-22.919,12.724-33.443,19.076a13.336,13.336,0,0,0,.411-5.166l-2.429,6.387c-5.634,3.413-9.532,5.826-9.532,5.826,1.884-6.312-20.95-46.233-34.383-59.519-2.65-6.308-2.014-16.38-1.959-17.171-.916,7.9-.464,12.53.229,15.225C529.144,313.879,545.542,271.935,555.048,268.807Z" transform="translate(-440.012 -267.515)"/><path class="d" d="M600.994,339.1c-.079.035,7.626,4.036,13.421,2.45,5.451-1.486,9.013-8.554,8.938-8.57-2.308-.459-2.973-3.631-2.925-17.264l-1.044.206L601.836,319.4s.4,5.523.411,10.725C602.259,334.488,601.994,338.631,600.994,339.1Z" transform="translate(-495.879 -273.427)"/><path class="f" d="M613.441,278.94s-6.665-10.745-19.045-4.321C594.4,274.619,600.812,274.8,613.441,278.94Z" transform="translate(-480.178 -268.135)"/><path class="g" d="M605.519,319.424s.4,5.523.411,10.725c9.82-.276,15.01-9.234,17.136-14.2Z" transform="translate(-499.561 -273.456)"/><path class="e" d="M616.115,311.358s6.651-6.953,9.236-13.525c1.845-4.691,3-23.227-15.646-24.282a25.12,25.12,0,0,0-10.99,1.8c-4.471,1.864-11.307,6.457-8.129,23.476l.578,5.649Z" transform="translate(-488.998 -268.249)"/><path class="h" d="M600.991,634.684s4.664.8,8.493,1.1c.851.065,1.659.1,2.365.1a41.644,41.644,0,0,0,7.4-1.214l.167-.039c.979-.231,1.727-.421,2-.493l.118-.03s23.259-25.893,36.3-67.4q.454-1.452.963-2.929c7.142-20.819,21.942-46.948,29.741-70.6,1.24-3.765,2.356-7.313,3.354-10.668q.484-1.611.93-3.169c5.749-19.973,7.412-33.084,8.944-47.1l-46.893,11.931S635.187,529.53,600.991,634.684Z" transform="translate(-574.292 -287.72)"/><path class="d" d="M599.973,317.84s22.7,4.966,25.574-9.217,7.741-23.094-6.63-26.865-18.293,1.069-20.4,5.569S594.143,316.183,599.973,317.84Z" transform="translate(-497.086 -269.096)"/><path class="e" d="M589.881,278.9s2.881,17.9,11.955,22.29,13.742,2.663,13.742,2.663a27.647,27.647,0,0,1-5.637-17.8S596.181,271.925,589.881,278.9Z" transform="translate(-478.353 -268.674)"/><path class="e" d="M631.412,280.56s-5.405,2.778-7.269,6.161-3.873,10.718-5.99,10.028c0,0-2.418-12.259,4.152-17.6C629.271,273.5,631.412,280.56,631.412,280.56Z" transform="translate(-518.611 -268.673)"/><path class="d" d="M615.634,678.249a25.763,25.763,0,0,0,1.211,10.962s1.556,7.092-5.427,7.223-8.7-.527-7.907-4.875,2.3-11.869,2.3-11.869Z" transform="translate(-491.571 -317.893)"/><path class="i" d="M616.636,690.718s1.293,6.7.5,10.254c0,0-2.107,1.581-7.181,1.581-4.81,0-7.314-1.581-7.314-1.581s-.148-7.338,1.137-10.434C603.78,690.537,608.729,697.965,616.636,690.718Z" transform="translate(-491.362 -319.4)"/><path class="d" d="M706.88,691.214s12.876-14.291,16.828-21.563l9.574,4.905-21.4,20.1-5.007-.659Z" transform="translate(-698.701 -316.838)"/><path class="i" d="M704.108,700.275s13.836,0,16.207-.264,4.281-3.688,6.851-8.828c1.051-2.1,3.411-3.261,5.831-3.9v11.9h3.656l3.459-12.651c2.281-4.19.182-7.989-1.423-11.3-1.866,0-6.886,1.273-16.4,11.99-3.127,3.518-6.577,4.775-10.005,4.668a.864.864,0,0,1-.142.075C704.237,695.532,704.108,700.275,704.108,700.275Z" transform="translate(-704.108 -317.524)"/><path class="j" d="M611.186,641.485c.851.065,1.659.1,2.365.1a41.649,41.649,0,0,0,7.4-1.214l.167-.039,2-.493.118-.03s23.259-25.893,36.3-67.4q.454-1.452.963-2.929c7.142-20.818,21.942-46.948,29.741-70.6,1.24-3.765,2.357-7.313,3.354-10.668q.484-1.611.93-3.169l-8.292-6.295s-24.9,40.32-32.61,78.265C647.234,588.469,619.725,629.246,611.186,641.485Z" transform="translate(-575.994 -293.424)"/><path class="h" d="M578,559.058c-.141,18.451.792,60.875,3.2,78.442,0,0,2.278,2.015,7.931,2.04,5.787.024,8.375-2.113,8.375-2.113,6.03-30.538,10.318-55.8,13.442-77.579,2.562-17.867,4.839-33.187,6.588-46.375,1.552-11.684,2.691-21.7,3.237-30.332q.108-1.758.189-3.438c.068-1.48.121-2.918.147-4.31s.034-2.771.023-4.1l-.2-.018-11.65-1.134-36.811-3.591C573.078,498.885,578.075,548.333,578,559.058Z" transform="translate(-468.624 -291.928)"/><path class="j" d="M572.46,638.98a14.387,14.387,0,0,0,8.375-2.113c6.03-30.538,10.318-55.8,13.442-77.579,2.562-17.867,4.839-33.187,6.588-46.375,1.552-11.684,2.691-21.7,3.237-30.332.064-4.254.11-8.33.159-11.863.053-3.582.11-6.615.209-8.725l-11.859,7.591-12.478,7.98s17.7,16.1,13.35,46.541S578.513,634.669,572.46,638.98Z" transform="translate(-451.961 -291.368)"/><path class="k" d="M667.031,334.621s-18.916-3-25.265,3.315c-7.782,7.74-22.391,52.121-21.811,57.187.222,1.934,7.9,1.034,10.532-1.726C643.607,379.64,662.42,344.917,667.031,334.621Z" transform="translate(-556.178 -275.659)"/><path class="k" d="M572.711,458.486c14.121,3.67,80.016,10.914,80.585-5.59.14-4.027,0-8.888-.318-14.152-.983-16.3-3.658-36.45-4.941-47.535-.588-5.082,1.367-27.84-.133-40.241a28.167,28.167,0,0,0-.911-4.74c-2.846-9.358-15.635-11.9-22.2-12.121l-19.81-.676s-20.458,22.853-23.3,29.874S577.9,394.359,575.69,406,565.842,456.7,572.711,458.486Z" transform="translate(-498.602 -275.6)"/><path class="h" d="M571.106,405.16s11.012,33.824,41.349,36.037c-.983-16.3-3.658-36.45-4.941-47.535-.588-5.082,1.367-27.84-.132-40.241-.395.083-.753.3-1.165.383C572.811,360.255,568.071,398.109,571.106,405.16Z" transform="translate(-458.08 -278.052)"/><path class="g" d="M610.97,402.878s19.886,6.52,44.115-3.938c0,0,6.6-.624,9.875.209,0,0-.7-6.545-3.907-8.326s-16.976,2.071-21.095,1.5C630.958,391.089,615.278,390.122,610.97,402.878Z" transform="translate(-546.239 -282.581)"/><path class="h" d="M655.481,383.635s-1.866-16.16,4.459-25.9a3.37,3.37,0,0,0-3.836,1.771c-1.6,2.53-12.771,26.536-7.454,28.3S655.481,383.635,655.481,383.635Z" transform="translate(-573.027 -278.568)"/><path class="g" d="M605.908,390.349c.285,0,9.392,1.19,11.005,2.328s.19,5.123-2.846,5.5S605.908,390.349,605.908,390.349Z" transform="translate(-494.422 -282.581)"/><path class="d" d="M644.146,396.559s-25.939-.949-49.467-5.5c0,0-4.3.038-3.795,3.795s40.78,24.782,49.635,20.733Z" transform="translate(-507.766 -282.668)"/><path class="d" d="M658.567,390.592s-2.75-3.321-4.459-3.321-6.167,2.182-6.831,4.174,5.277.569,7.5,2.941S658.567,390.592,658.567,390.592Z" transform="translate(-571.654 -282.204)"/><path class="k" d="M578.432,334.2s21.8.051,24.985,7.882C609.235,356.38,590.056,403.8,585,408.611c-2.176,2.067-12.255-1.192-12.255-14.852C572.741,386.675,573.249,345.288,578.432,334.2Z" transform="translate(-452.242 -275.695)"/></g></g><g transform="translate(1309.475 9880.978)"><path class="l" d="M1453.863,790.636s0-6.141.875-8.184,4.085-10.355,4.085-10.355h12.543s2.334,7.585,2.479,10.064,0,8.475,0,8.475Z" transform="translate(-1410.576 -400.299)"/><path class="l" d="M1541.84,790.636s0-6.141-.875-8.184-4.085-10.355-4.085-10.355h-12.544s-2.334,7.585-2.479,10.064,0,8.475,0,8.475Z" transform="translate(-1418.908 -400.299)"/><path class="d" d="M1485.119,399.361s-.442,13.674-2.193,19.8l-13.852,9.663,52.146,7.8-12.436-17.182s-3.754-18.335-1.785-25.118S1485.119,399.361,1485.119,399.361Z" transform="translate(-1412.442 -353.706)"/><path class="m" d="M1487.276,402.51s4.124,9.926,11.891,9.708,9.534-9,9.534-9Z" transform="translate(-1414.674 -354.968)"/><path class="n" d="M1481.264,387.827s-2.508-12.522-4.259-16.314S1473.8,350.8,1493.2,349.926c0,0,7.438.876,11.523-1.6,0,0,0,2.48-1.02,3.355a12.892,12.892,0,0,1,11.959,4.23c5.252,5.834-3.5,26.255-3.062,31.069Z" transform="translate(-1413.298 -348.321)"/><path class="d" d="M1497.58,403.958c-5.629-.1-15.987-7.593-15.987-16.873V372.6c0-3.389,2.363-6.162,5.251-6.162h21.471c2.888,0,5.251,2.772,5.251,6.162v13.662C1513.566,396,1504.034,404.072,1497.58,403.958Z" transform="translate(-1413.977 -350.544)"/><path class="n" d="M1481.493,379.877s.03-8.7,6.922-10.039,22.317,4.241,24.5-2.1-29.814-6.235-31.426-2.188S1481.493,379.877,1481.493,379.877Z" transform="translate(-1413.877 -350.085)"/><path class="o" d="M1455.3,550.822s2.2,67.018-1.086,105.257.024,91.455.024,91.455,10.5,5.786,21.872,0c0,0,12.478-73.874,12.4-91.455-.085-18.723,13.579-102.335,13.579-102.335Z" transform="translate(-1410.441 -373.159)"/><path class="o" d="M1537.436,747.516s-10.492,5.79-21.87,0c0,0-12.475-73.872-12.4-91.454.035-7.907-2.38-27.392-5.185-47.258-3.837-27.178-8.4-55.074-8.4-55.074l48.6-3.037s-4.008,67.134-.726,105.369S1537.436,747.516,1537.436,747.516Z" transform="translate(-1414.958 -373.143)"/><path class="p" d="M1533.136,546.284s-20.719,4.013-39.623,4.013a191.562,191.562,0,0,1-24.334-1.86c-7.885-1.046-13.539-2.153-13.539-2.153s-4.2.367-1.72-20.343c1.887-15.762,1.3-29.991.875-44.633-.048-1.628-.012-3.553.088-5.7.805-17.071,5.969-47.8,9.9-49.452a72.045,72.045,0,0,1,16.185-3.233c0,.2,6,8.97,13.119,9.954,4.424-1.75,7.9-3.242,12.738-9.67a138.7,138.7,0,0,1,19.967,3.851s.744,3.256,3.554,59.738C1531.465,509.174,1539.1,546.359,1533.136,546.284Z" transform="translate(-1410.487 -357.472)"/><path class="q" d="M1469.179,555.8c-7.885-1.046-13.539-2.153-13.539-2.153s-4.2.367-1.72-20.343c1.887-15.762,1.3-29.991.875-44.633-.048-1.628-.012-3.553.088-5.7,1.207,1.934,14.667,23.673,18.291,39.828C1475.813,534.589,1471.835,548.47,1469.179,555.8Z" transform="translate(-1410.487 -364.837)"/><path class="l" d="M1504.343,660.93c.035-7.907-2.38-27.392-5.185-47.258,2.91-11.867,10-23.288,10-23.288C1518.127,615.544,1504.343,660.93,1504.343,660.93Z" transform="translate(-1416.132 -378.011)"/><path class="p" d="M1429.684,493.8c-.494.411,1.23,4.682,3.768,10.248,5.225,11.434,13.9,28.32,13.9,28.32a50.07,50.07,0,0,1-2.635,7.71c-14.6-11.469-24.01-21.227-30.018-28.709-8.445-10.524-10.178-16.558-10.178-16.558,32.5-66.162,55.379-68.6,55.379-68.6l-2.7,43.724S1431.19,492.545,1429.684,493.8Z" transform="translate(-1404.524 -357.874)"/><path class="d" d="M1451.2,547.534s7.877-7.293,11.085-3.209,3.792,10.5,1.312,10.064-7.585-2.772-8.314-1.6-4,3.4-4.988,1.626S1451.2,547.534,1451.2,547.534Z" transform="translate(-1410.104 -372.209)"/><path class="d" d="M1448.778,543.247a50.082,50.082,0,0,1-2.635,7.71c-14.6-11.469-24.01-21.227-30.018-28.709,4.529-.337,11.141-1.956,18.75-7.321C1440.1,526.361,1448.778,543.247,1448.778,543.247Z" transform="translate(-1405.947 -368.756)"/><path class="p" d="M1588.839,494.9s-1.733,6.034-10.178,16.558c-6.008,7.483-15.42,17.241-30.018,28.709a50.013,50.013,0,0,1-2.634-7.71s8.677-16.886,13.9-28.32c2.538-5.566,4.262-9.837,3.768-10.248-1.168-.971-17.057-14.777-24.146-20.933l-3.369-2.932-1.624-43.075S1556.336,428.736,1588.839,494.9Z" transform="translate(-1420.471 -357.965)"/><path class="d" d="M1547.636,547.534s-7.877-7.293-11.086-3.209-3.792,10.5-1.312,10.064,7.586-2.772,8.315-1.6,4,3.4,4.988,1.626S1547.636,547.534,1547.636,547.534Z" transform="translate(-1420.369 -372.209)"/><path class="d" d="M1547.61,543.247a49.967,49.967,0,0,0,2.635,7.71c14.6-11.469,24.009-21.227,30.017-28.709-4.529-.337-11.141-1.956-18.751-7.321C1556.287,526.361,1547.61,543.247,1547.61,543.247Z" transform="translate(-1422.074 -368.756)"/><path class="o" d="M1564.376,500.071c-1.169-.971-17.057-14.777-24.146-20.933,0,0,7.076-5.3,11.452,2.428S1564.376,500.071,1564.376,500.071Z" transform="translate(-1421.169 -364.149)"/><path class="o" d="M1594.63,504.4s-1.733,6.034-10.178,16.558C1574.676,520.821,1594.63,504.4,1594.63,504.4Z" transform="translate(-1426.263 -367.465)"/><path class="r" d="M1485.276,419.127a5.535,5.535,0,0,0-2.972,3.589s9.288,9.553,15.364,9.7Z" transform="translate(-1414.065 -357.006)"/><path class="r" d="M1499.816,432.348l11.987-13.772a5.625,5.625,0,0,1,2.44,4.309S1504.97,432.713,1499.816,432.348Z" transform="translate(-1416.212 -356.938)"/><path class="r" d="M1496.425,433.108s-9.15,78.985-5.964,88.612a65.854,65.854,0,0,0,5.58,12.236,3.244,3.244,0,0,0,5.613-.012c2.429-4.218,5.6-10.323,5.6-13.421,0-5.018-6.943-87.484-6.943-87.484Z" transform="translate(-1414.982 -358.712)"/><path class="s" d="M1494.519,428.66a57.673,57.673,0,0,1,8.9-.213.933.933,0,0,1,.713,1.385c-.943,1.7-2.869,4.643-4.882,4.643C1496.419,434.475,1492.012,428.854,1494.519,428.66Z" transform="translate(-1415.472 -358.135)"/></g><g transform="translate(1224.372 9889.013)"><g transform="translate(0 0)"><path class="l" d="M477.55,344.6s19.491-7.21,27.485,9.008,1.475,30.455,10.39,36.13,12.436,12.826,12.436,23.232-4.423,11.651,2.033,19.277-12.108,22.78-32.5,13.342a175.773,175.773,0,0,0-39.7-12.7s-8.9-21.96-2-31.678,18.561-13.945,7.673-24.07C451.838,366.422,456.079,344.6,477.55,344.6Z" transform="translate(-402.282 -343.005)"/><path class="d" d="M431.058,495.7c-15.576-5.738-30.577-32.392-30.577-32.392l4.912-3.438c4.091,5.984,22.5,17.475,22.5,17.475.421-5.044,1.03-9.62,1.784-13.764,5.109-28.168,16.8-36.512,19.937-38.284a7.172,7.172,0,0,1,.791-.4s-.01.207-.034.6c-.046.848-.145,2.556-.309,4.9C448.842,447.836,444.071,500.5,431.058,495.7Z" transform="translate(-393.36 -356.899)"/><path class="d" d="M515.106,519.372c-7.695-17.257-11.376-22.136-11.5-27.566-.1-4.293,2.015-8.926,6.128-20.285a42.332,42.332,0,0,0,2.048-8.211c3.252-21.9-9.412-45.573-17.282-47.185-2.19-.579-5.9-8.489-5.857-21.234l-.986.194-16.573,3.282s.377,5.215.389,10.129c.011,4.094-.237,7.975-1.163,8.464-1.194.109-1.9.179-1.9.179s-13.819,19.191-14.981,37.04,11.066,25.6-.092,61.271C441.943,551.879,519.357,528.907,515.106,519.372Z" transform="translate(-402.132 -351.808)"/><path class="t" d="M474.94,398.406s.377,5.215.389,10.129c9.274-.262,14.176-8.721,16.184-13.411Z" transform="translate(-405.992 -351.848)"/><path class="d" d="M469.717,397.115s21.943.362,21.958-13.306,2.857-22.826-11.151-23.635-16.737,4.4-17.852,8.964S464.009,396.669,469.717,397.115Z" transform="translate(-403.866 -345.904)"/><path class="l" d="M470.63,358.443s7.3,16.7,16.521,19.071,13.219-.1,13.219-.1a26.1,26.1,0,0,1-8.539-15.425S475.162,350.812,470.63,358.443Z" transform="translate(-405.261 -345.172)"/><path class="l" d="M471.711,360.821s-1.926-.328-4.992,2.992c-2.475,2.68-4.381,8.531-4.262,14.471,0,0-4.526-10.9.56-17.065C468.41,354.681,471.711,360.821,471.711,360.821Z" transform="translate(-403.56 -345.584)"/><path class="e" d="M495.47,711.326a216.771,216.771,0,0,1-13.83,38.8l-7.236-.5a204.589,204.589,0,0,0,3.345-39.69c-.144-15.946-2.116-34.791-8.416-52.784-21.65-61.835-18.151-106.837-18.151-106.837l40.715,4.762,1.9.223c.17,18.7.653,44.085,1.074,63.938.374,17.853.7,31.227.7,31.227C503.4,667.319,500.554,691.115,495.47,711.326Z" transform="translate(-401.926 -378.176)"/><path class="d" d="M552.061,541.955l-6.587,1.976s-21.73-36.055-23.705-45.436c-.645-3.055-2.225-9.166-4.069-16.014-3.815-14.181-8.74-31.534-8.74-31.534l-1.622-7.025-5.531-23.955s10.591,1.082,16.786,3.673c2.051.856,3.616,1.877,4.163,3.077,4.552,10.007,9.095,35.263,12.288,53.278,1.78,10.041,3.138,17.835,3.846,19.487C540.866,504.09,546.9,529.445,552.061,541.955Z" transform="translate(-410.55 -356.063)"/><path class="u" d="M522.885,706.068c-2.342,24.983-12.649,41.139-12.649,41.139l-3.457,2.513s-3.272-17.6-5.587-38.545c-2.205-19.9-5.23-40.968-8.65-47.4-13.578-25.5-17.666-121.749-17.666-121.749l41.28-2.048c4.152,6.979,5.961,18.427,6.391,31.444,1.086,32.849-6.636,75.683-7.789,81.878a.027.027,0,0,1,0,.015,2.159,2.159,0,0,0,.272,1.384C523.24,670.963,524.428,689.564,522.885,706.068Z" transform="translate(-405.982 -376.424)"/><path class="l" d="M472.977,361.116s4.28,16.791,15.914,22.169c0,0-11.634-10.316-12.621-21.4S472.977,361.116,472.977,361.116Z" transform="translate(-405.659 -345.337)"/><path class="d" d="M560.517,565.559s2,4.719,4.088,6.036,5.048,4.5,4.5,7.025-1.1,6.475-3.732,6.475-8.78-11.634-9.548-13.829-1.427-2.635-1.427-2.635Z" transform="translate(-419.473 -380.763)"/><path class="d" d="M403.938,463.454c0-.678.568-10.48-1.177-12.538s-5.307-4.987-6.428-4.9-5.5,5.912-4.185,10.373,6.877,10.5,6.877,10.5Z" transform="translate(-391.905 -360.482)"/><g transform="translate(51.368 361.267)"><path class="l" d="M486.282,794.833h-4.62c-1.547-.243-2.689-.692-4.277-.9-2.41-.316-3.519.671-3.74.9a.621.621,0,0,0-.043.046H453.978c-.494-.7-.019-2.338.445-3.54a2.79,2.79,0,0,1,1.837-1.679c2.081-.6,6.184-1.139,9.94-4.54,2.114-1.91,10.207-7.023,10.207-7.023l.042-.01c.178,0,1.024.263,4.7,3.371,1.9,1.6,5.146-2.265,5.146-2.265a4.619,4.619,0,0,1,1.064,1.442,4.873,4.873,0,0,1,.422,3.012c-.293,1.769.652,5.054,1.406,7.276.457,1.347.843,2.3.843,2.3S490.256,794.335,486.282,794.833Z" transform="translate(-453.769 -778.087)"/><path class="v" d="M491.99,780.635c-1.1.777-3.431,2.307-4.975,2.509-2.085.273-5.983-5.048-5.983-5.048l.042-.01c.178,0,1.024.263,4.7,3.371,1.9,1.6,5.146-2.265,5.146-2.265A4.618,4.618,0,0,1,491.99,780.635Z" transform="translate(-458.394 -778.087)"/><path class="v" d="M486.282,797.455h-4.62c-1.547-.243-2.689-.692-4.277-.9-2.41-.316-3.519.671-3.74.9-.03.03-.043.047-.043.047H453.978c-.494-.7-.019-2.338.445-3.54.6-.53.764,2.3,1.093,2.753s16.008.164,16.914-.494a9.467,9.467,0,0,1,7.408-.905c3.3.786,8.151-1.231,9.354-1.769.457,1.347.843,2.3.843,2.3S490.256,796.958,486.282,797.455Z" transform="translate(-453.769 -780.71)"/></g><g transform="translate(76.02 361.267)"><path class="l" d="M515.97,794.833h-4.62c-1.548-.243-2.689-.692-4.277-.9-2.41-.316-3.519.671-3.74.9a.624.624,0,0,0-.043.046H483.666c-.493-.7-.02-2.338.445-3.54a2.792,2.792,0,0,1,1.837-1.679c2.081-.6,6.184-1.139,9.941-4.54C498,783.21,506.1,778.1,506.1,778.1l.042-.01c.178,0,1.025.263,4.706,3.371,1.9,1.6,5.146-2.265,5.146-2.265a4.624,4.624,0,0,1,1.063,1.442,4.874,4.874,0,0,1,.422,3.012c-.293,1.769.652,5.054,1.406,7.276.458,1.347.843,2.3.843,2.3S519.944,794.335,515.97,794.833Z" transform="translate(-483.457 -778.087)"/><path class="v" d="M521.678,780.635c-1.1.777-3.43,2.307-4.975,2.509-2.084.273-5.983-5.048-5.983-5.048l.042-.01c.178,0,1.025.263,4.706,3.371,1.9,1.6,5.146-2.265,5.146-2.265A4.624,4.624,0,0,1,521.678,780.635Z" transform="translate(-488.082 -778.087)"/><path class="v" d="M515.97,797.455h-4.62c-1.548-.243-2.689-.692-4.277-.9-2.41-.316-3.519.671-3.74.9-.03.03-.043.047-.043.047H483.666c-.493-.7-.02-2.338.445-3.54.6-.53.764,2.3,1.093,2.753s16.008.164,16.914-.494a9.466,9.466,0,0,1,7.408-.905c3.3.786,8.153-1.231,9.355-1.769.458,1.347.843,2.3.843,2.3S519.944,796.958,515.97,797.455Z" transform="translate(-483.457 -780.71)"/></g><path class="d" d="M395.912,446.543s3.206-2.908,5.824-.158-.991,7.664-3.632,8.836a20.283,20.283,0,0,0-3.518,1.833Z" transform="translate(-392.36 -360.344)"/><path class="w" d="M506.731,483.358a26.42,26.42,0,0,0,19.329-2.831c-3.718-18.144-9.005-43.581-14.3-53.659a4.188,4.188,0,0,0-1.3-1.373l.053-.064c-4.963-3.609-15.106-4.717-15.106-4.717s-3.126,13.868-5.1,15.679-30.621,4.773-31.281,1.481c-.63-3.145,7.447-15.375,8.051-16.453a12,12,0,0,0-1.3.1c-3.265.43-5.569.757-7.231,1.04-3.254.558-4.065.947-4.876,1.569-.182.182-.367.382-.555.6-3.855,2.92-12.918,11.886-16.463,33.5,0,0,4.483,6.144,10.8,7.956.164.047.335.075.5.115-1.094,18.313-7.839,48.8-5.41,66.441,2.334,16.952,38,12.616,45.066,11.044q7.268-1.612,11.27-15.308c.886,6.372,2.873,13.842,7.33,14.305,7.292.754,10.309-.5,11.187-3.269a9.8,9.8,0,0,0,.257-3.3C517.168,526.69,509.925,504.255,506.731,483.358Z" transform="translate(-399.495 -356.189)"/></g></g><g transform="translate(1032.642 9883.945)"><path class="x" d="M1036.609,1293.806s18.342-2.392,24.153,16.77c4.437,14.632,14.084,22.371,13.809,37.838s-3.3,15.466.006,23.751-4.7,16.572-12.987,16.572-49.541-13.141-51.008-20.932,5.584-22.133,3.1-27.944,3.512-14.665,2.062-27.076C1014.878,1305.369,1021.258,1292.21,1036.609,1293.806Z" transform="translate(-967.292 -1293.673)"/><path class="d" d="M1089.133,1473.627c-10.971-35.075,1.052-42.7-.092-60.25s-14.732-36.421-14.732-36.421-.692-.07-1.863-.179c-.911-.48-1.157-4.3-1.146-8.319.012-4.835.383-9.964.383-9.964l-4.44-.877-11.856-2.347-.971-.194a56.869,56.869,0,0,1-.431,7.394,36.321,36.321,0,0,1-2.383,9.566c-1,2.335-2.091,3.693-2.942,3.919-7.74,1.588-20.191,24.866-16.993,46.4a41.553,41.553,0,0,0,2.012,8.075c4.043,11.172,6.125,15.724,6.025,19.949-.127,5.337-3.746,10.134-11.31,27.1C1024.213,1486.86,1100.335,1509.449,1089.133,1473.627Z" transform="translate(-993.765 -1315.319)"/><path class="y" d="M1031.563,1709.4a213.19,213.19,0,0,0,13.6,38.149l7.116-.493a201.155,201.155,0,0,1-3.289-39.029c.14-15.679,2.08-34.211,8.276-51.9,21.289-60.8,17.849-105.055,17.849-105.055l-40.036,4.683-1.865.219c-.166,18.386-.642,43.351-1.057,62.872-.367,17.556-.689,30.708-.689,30.708C1023.77,1666.128,1026.565,1689.528,1031.563,1709.4Z" transform="translate(-977.832 -1384.412)"/><path class="d" d="M996.9,1397.951s7,1.229,8.381,6.771c3.141,12.587,2.064,47.042,5.177,57.732s12.007,37.291,13.341,42.83c0,0-3.644,2.314-5.781,1.48-1.263-.493-22.235-36.691-24.459-42.048S996.9,1397.951,996.9,1397.951Z" transform="translate(-904.519 -1330.433)"/><path class="d" d="M1090.8,1506.656l6.478,1.942s21.367-35.453,23.31-44.678c.634-3,2.188-9.013,4-15.747,3.752-13.945,8.595-31.008,8.595-31.008l1.594-6.907,5.439-23.555s-10.415,1.064-16.507,3.611c-2.017.842-3.556,1.847-4.093,3.026-4.475,9.84-8.944,34.675-12.084,52.39-1.75,9.873-3.085,17.537-3.782,19.162C1101.806,1469.422,1095.87,1494.353,1090.8,1506.656Z" transform="translate(-1084.233 -1326.468)"/><g transform="translate(4.643 159.361)"><path class="n" d="M1056.847,1699.773c-1.791,24.611,5.579,41.954,5.579,41.954l2.944,3s6.034-16.539,11.684-36.472c5.374-18.945,11.731-38.88,16.092-44.559,17.313-22.52,36.924-115.2,36.924-115.2l-39.7-8.7c-5.161,6.093-8.777,16.9-11.31,29.454-6.393,31.681-5.867,74.476-5.755,80.672a.036.036,0,0,0,0,.015,2.124,2.124,0,0,1-.488,1.3C1062.209,1665.671,1058.034,1683.518,1056.847,1699.773Z" transform="translate(-1056.566 -1539.799)"/><path class="d" d="M1138.728,1786.873c-1.791,24.611,5.579,41.954,5.579,41.954l2.892,3.68s6.086-17.22,11.735-37.153C1156.539,1795.13,1146.047,1793.762,1138.728,1786.873Z" transform="translate(-1138.447 -1626.899)"/></g><path class="d" d="M1062.28,1794.86a213.186,213.186,0,0,0,13.6,38.149l7.116-.493a201.143,201.143,0,0,1-3.289-39.029C1077.292,1794.7,1072.309,1795.939,1062.28,1794.86Z" transform="translate(-1008.549 -1469.87)"/><g transform="translate(4.438 353.218)"><path class="l" d="M1119.017,1855.671h4.543c1.521-.239,2.644-.68,4.205-.884,2.37-.311,3.461.66,3.678.884.029.029.043.045.043.045h19.3c.485-.693.019-2.3-.437-3.48a2.745,2.745,0,0,0-1.806-1.652c-2.047-.593-6.08-1.12-9.775-4.464-2.078-1.878-10.036-6.906-10.036-6.906l-.043-.01c-.174,0-1.006.259-4.626,3.315-1.871,1.577-5.06-2.228-5.06-2.228a4.55,4.55,0,0,0-1.046,1.418,4.8,4.8,0,0,0-.414,2.962c.288,1.739-.642,4.97-1.383,7.156-.449,1.324-.828,2.263-.828,2.263S1115.109,1855.182,1119.017,1855.671Z" transform="translate(-1115.325 -1839.204)"/><path class="v" d="M1149.706,1841.71c1.085.765,3.374,2.27,4.892,2.468,2.049.269,5.883-4.964,5.883-4.964l-.043-.01c-.174,0-1.006.259-4.626,3.315-1.871,1.577-5.06-2.228-5.06-2.228A4.547,4.547,0,0,0,1149.706,1841.71Z" transform="translate(-1147.079 -1839.204)"/><path class="v" d="M1132.638,1861.33a9.312,9.312,0,0,0-7.285-.89c-3.241.774-8.017-1.211-9.2-1.738-.449,1.324-.828,2.263-.828,2.263s-.218,1.091,3.691,1.58h4.543c1.521-.239,2.644-.68,4.205-.884,2.37-.311,3.461.66,3.678.884.029.029.043.045.043.045h19.3c.485-.693.019-2.3-.437-3.48-.587-.522-.751,2.263-1.075,2.706Z" transform="translate(-1115.325 -1846.077)"/></g><g transform="translate(59.792 353.218)"><path class="l" d="M1033.526,1855.671h4.543c1.521-.239,2.645-.68,4.205-.884,2.37-.311,3.461.66,3.678.884.029.029.043.045.043.045h19.3c.486-.693.02-2.3-.437-3.48a2.746,2.746,0,0,0-1.807-1.652c-2.046-.593-6.08-1.12-9.775-4.464-2.078-1.878-10.036-6.906-10.036-6.906l-.042-.01c-.175,0-1.007.259-4.627,3.315-1.871,1.577-5.06-2.228-5.06-2.228a4.544,4.544,0,0,0-1.046,1.418,4.8,4.8,0,0,0-.414,2.962c.288,1.739-.641,4.97-1.383,7.156-.45,1.324-.828,2.263-.828,2.263S1029.617,1855.182,1033.526,1855.671Z" transform="translate(-1029.833 -1839.204)"/><path class="v" d="M1064.214,1841.71c1.084.765,3.373,2.27,4.892,2.468,2.049.269,5.883-4.964,5.883-4.964l-.042-.01c-.175,0-1.007.259-4.627,3.315-1.871,1.577-5.06-2.228-5.06-2.228A4.543,4.543,0,0,0,1064.214,1841.71Z" transform="translate(-1061.586 -1839.204)"/><path class="v" d="M1047.146,1861.33a9.31,9.31,0,0,0-7.284-.89c-3.241.774-8.017-1.211-9.2-1.738-.45,1.324-.828,2.263-.828,2.263s-.218,1.091,3.691,1.58h4.543c1.521-.239,2.645-.68,4.205-.884,2.37-.311,3.461.66,3.678.884.029.029.043.045.043.045h19.3c.486-.693.02-2.3-.437-3.48-.586-.522-.751,2.263-1.075,2.706Z" transform="translate(-1029.833 -1846.077)"/></g><path class="z" d="M1056.918,1373.417c7.728-.209,20.083-13.542,20.083-13.542a9.1,9.1,0,0,0-4.44-.877c-4.255.1-9.354,2.242-13.259,4.853A36.316,36.316,0,0,1,1056.918,1373.417Z" transform="translate(-999.083 -1316.7)"/><path class="d" d="M1054.012,1349.875s21.162,4.219,23.587-9,6.789-21.579-6.62-24.831-16.968,1.308-18.851,5.524S1048.568,1348.436,1054.012,1349.875Z" transform="translate(-998.069 -1301.17)"/><path class="x" d="M1028.285,1309.03s-1.154,8.009,6.856,16.295,6.575,18.531,8.121,24.042,17.537,10.07,18.931,13.314c0,0-1.643-12.814-6.89-21.909s-.553-17.656-5.248-26.218S1029.991,1306.268,1028.285,1309.03Z" transform="translate(-965.698 -1298.479)"/><path class="d" d="M986.667,1563.05s7.189,6.778,8.11,9.454.307,9.278,0,10.126-4.424-2.583-5.653-4.539-3.364-5.819-3.364-3.885.589,4.026-.948,3.411-2.677-11.877-2.677-11.877Z" transform="translate(-868.927 -1388.635)"/><path class="d" d="M1165.58,1568.353s-7.19,6.778-8.112,9.456-.307,9.279,0,10.127,4.425-2.583,5.654-4.54,3.364-5.818,3.364-3.885-.589,4.026.947,3.411,2.677-11.876,2.677-11.876Z" transform="translate(-1156.982 -1390.505)"/><path class="aa" d="M1029.364,1449.242a25.982,25.982,0,0,1-19.006-2.785c3.656-17.841,8.854-42.854,14.06-52.764a4.134,4.134,0,0,1,1.283-1.35l-.052-.062c4.879-3.549,14.854-4.639,14.854-4.639s3.073,13.637,5.016,15.417,30.111,4.694,30.76,1.458c.62-3.092-7.324-15.119-7.917-16.18a12.113,12.113,0,0,1,1.281.1s13.759,1.076,17.883,4.683c6.181,5.4,9.9,47.91,9.621,49.077-.252,1.053-2.574,4.559-8.494,4.56,2.206,17.056,5.671,37.757,3.841,51.043-2.3,16.671-37.363,12.406-44.315,10.86q-7.146-1.585-11.082-15.053c-.872,6.266-2.826,13.611-7.208,14.067-7.171.741-10.137-.5-11-3.215a9.627,9.627,0,0,1-.253-3.244C1019.1,1491.852,1026.224,1469.791,1029.364,1449.242Z" transform="translate(-989.096 -1326.799)"/></g><g transform="translate(1126.11 9877.606)"><path class="x" d="M1103.724,207.568s-13.118-.658-13.487-8.228-11.2-13.092-8.066-19.168c3.849-7.453.339-14.618,5.2-19.63,5.353-5.521,12.116-2.523,15.685-5.74s10.094-6.183,16.528-2.208,11.347,1.835,15.576,5.663c4.672,4.229,2.9,9.552,6.755,12.443,3.533,2.65,2.092,9.889-.883,15.771-2.145,4.24,2.8,8.213-5.687,13.086-3.532,2.029-2.766,7.131-13.49,8.012C1117.022,207.964,1106.54,205.7,1103.724,207.568Z" transform="translate(-1041.249 -150.684)"/><path class="l" d="M1077.647,618.336s0-5.312.758-7.078,3.532-8.959,3.532-8.959h10.851s2.018,6.561,2.145,8.706,0,7.331,0,7.331Z" transform="translate(-1040.204 -270.011)"/><path class="l" d="M1165.055,618.336s0-5.312-.756-7.078-3.533-8.959-3.533-8.959h-10.851s-2.019,6.561-2.145,8.706,0,7.331,0,7.331Z" transform="translate(-1058.718 -270.011)"/><path class="ab" d="M1107.217,216.655s-.382,11.828-1.9,17.127l-11.983,8.359,45.106,6.75-10.758-14.863s-3.248-15.859-1.544-21.726S1107.217,216.655,1107.217,216.655Z" transform="translate(-1044.35 -166.485)"/><path class="ac" d="M1112.112,221.091s3.567,8.586,10.285,8.4,8.248-7.787,8.248-7.787Z" transform="translate(-1049.311 -169.287)"/><path class="ab" d="M1120.079,216.34c-4.869-.086-13.829-6.568-13.829-14.6V189.218c0-2.931,2.044-5.329,4.543-5.329h18.573c2.5,0,4.542,2.4,4.542,5.329v11.818C1133.907,209.454,1125.662,216.439,1120.079,216.34Z" transform="translate(-1047.762 -159.457)"/><path class="r" d="M1078.707,374.067s1.9,57.971-.94,91.048.02,79.11.02,79.11a21.469,21.469,0,0,0,18.92,0s10.793-63.9,10.724-79.11c-.072-16.2,11.747-88.52,11.747-88.52Z" transform="translate(-1039.904 -209.707)"/><path class="r" d="M1155.886,544.188a21.456,21.456,0,0,1-18.918,0s-10.792-63.9-10.723-79.109c.03-6.84-2.059-23.695-4.486-40.879-3.319-23.51-7.264-47.64-7.264-47.64l42.042-2.627s-3.468,58.071-.629,91.146S1155.886,544.188,1155.886,544.188Z" transform="translate(-1049.94 -209.672)"/><path class="ad" d="M1146.1,348.856s-17.922,3.471-34.275,3.471a165.856,165.856,0,0,1-21.048-1.608c-6.821-.9-11.711-1.862-11.711-1.862s-3.634.318-1.488-17.6c1.631-13.633,1.12-25.943.757-38.608-.042-1.408-.011-3.074.076-4.929.7-14.765,5.163-41.348,8.566-42.775a62.29,62.29,0,0,1,14-2.8c0,.174,5.189,7.759,11.348,8.611,3.827-1.514,6.832-2.8,11.018-8.365a120.009,120.009,0,0,1,17.271,3.332s.643,2.816,3.073,51.674C1144.653,316.754,1151.259,348.92,1146.1,348.856Z" transform="translate(-1040.007 -174.851)"/><path class="ae" d="M1090.776,367.083c-6.821-.905-11.711-1.862-11.711-1.862s-3.634.318-1.488-17.6c1.631-13.633,1.12-25.943.757-38.608-.042-1.408-.011-3.074.076-4.929,1.045,1.673,12.688,20.478,15.822,34.453C1096.515,348.733,1093.074,360.74,1090.776,367.083Z" transform="translate(-1040.007 -191.217)"/><path class="s" d="M1128.853,475.9c.03-6.84-2.06-23.695-4.486-40.879,2.518-10.266,8.649-20.145,8.649-20.145C1140.776,436.636,1128.853,475.9,1128.853,475.9Z" transform="translate(-1052.549 -220.489)"/><path class="ad" d="M1048.522,304c-.428.355,1.063,4.05,3.259,8.864,4.519,9.891,12.025,24.5,12.025,24.5a43.254,43.254,0,0,1-2.278,6.669c-12.627-9.92-20.769-18.361-25.966-24.834-7.306-9.1-8.8-14.323-8.8-14.323,28.116-57.232,47.9-59.341,47.9-59.341l-2.338,37.823S1049.824,302.916,1048.522,304Z" transform="translate(-1026.758 -175.745)"/><path class="ab" d="M1074.706,369.933s6.813-6.309,9.589-2.775,3.28,9.084,1.135,8.706-6.561-2.4-7.192-1.388-3.457,2.938-4.315,1.406S1074.706,369.933,1074.706,369.933Z" transform="translate(-1039.155 -207.597)"/><path class="ab" d="M1066.968,361.54a43.261,43.261,0,0,1-2.278,6.669c-12.627-9.92-20.769-18.361-25.966-24.834,3.917-.291,9.637-1.691,16.219-6.333C1059.463,346.933,1066.968,361.54,1066.968,361.54Z" transform="translate(-1029.92 -199.924)"/><path class="ad" d="M1207.831,305.075s-1.5,5.22-8.8,14.323c-5.2,6.473-13.338,14.913-25.965,24.834a43.263,43.263,0,0,1-2.278-6.669s7.506-14.607,12.025-24.5c2.195-4.814,3.686-8.509,3.258-8.864-1.01-.841-14.755-12.783-20.886-18.108l-2.914-2.536-1.4-37.261S1179.715,247.843,1207.831,305.075Z" transform="translate(-1062.192 -175.946)"/><path class="ab" d="M1172.051,369.933s-6.813-6.309-9.589-2.775-3.281,9.084-1.136,8.706,6.562-2.4,7.192-1.388,3.457,2.938,4.315,1.406S1172.051,369.933,1172.051,369.933Z" transform="translate(-1061.963 -207.597)"/><path class="ab" d="M1174.344,361.54a43.261,43.261,0,0,0,2.278,6.669c12.628-9.92,20.769-18.361,25.966-24.834-3.918-.291-9.637-1.691-16.219-6.333C1181.85,346.933,1174.344,361.54,1174.344,361.54Z" transform="translate(-1065.754 -199.924)"/><path class="ae" d="M1187.618,317.941c-1.01-.841-14.755-12.783-20.887-18.108,0,0,6.121-4.588,9.906,2.1A173.365,173.365,0,0,0,1187.618,317.941Z" transform="translate(-1063.742 -189.687)"/><path class="ae" d="M1220.7,326.183s-1.5,5.22-8.8,14.323C1203.439,340.389,1220.7,326.183,1220.7,326.183Z" transform="translate(-1075.06 -197.055)"/><path class="x" d="M1106.24,192.327s3.379-10.314,14.451-8.706,12.029,3.974,13.206,6.718,3.448-10.03,3.448-10.03l-13.059-3.88s-15.8,1.8-16.938,4.447l-1.135,2.65Z" transform="translate(-1047.752 -157.486)"/><g transform="translate(59.06 35.017)"><path class="x" d="M1113.511,205.794c-1.911,0-5.735-.425-6.4-3.746a3.007,3.007,0,0,1,.548-2.585,3.555,3.555,0,0,1,2.8-1.188h5.876a2.6,2.6,0,0,1,2.32.954c.71,1.067.166,2.667-.1,3.306-.914,2.185-2.173,3.206-3.962,3.21A10.712,10.712,0,0,1,1113.511,205.794Zm-3.059-7.133a3.175,3.175,0,0,0-2.5,1.046,2.635,2.635,0,0,0-.469,2.264c.343,1.7,1.623,2.793,3.8,3.236a11.583,11.583,0,0,0,3.26.152h.023c1.619,0,2.768-.944,3.616-2.972.19-.454.76-2.006.137-2.943a2.245,2.245,0,0,0-2-.782Z" transform="translate(-1107.028 -198.275)"/></g><g transform="translate(73.608 35.017)"><path class="x" d="M1132.287,205.794a10.683,10.683,0,0,1-1.073-.049c-1.789,0-3.048-1.025-3.962-3.21-.267-.639-.812-2.239-.1-3.306a2.6,2.6,0,0,1,2.321-.954h5.876a3.556,3.556,0,0,1,2.8,1.188,3.012,3.012,0,0,1,.548,2.585C1138.023,205.369,1134.2,205.794,1132.287,205.794Zm-2.817-7.133a2.245,2.245,0,0,0-2,.782c-.624.937-.053,2.489.136,2.943.85,2.028,2,2.972,3.617,2.972h.023a11.57,11.57,0,0,0,3.259-.152c2.182-.443,3.462-1.532,3.806-3.236a2.634,2.634,0,0,0-.469-2.264,3.174,3.174,0,0,0-2.5-1.046Z" transform="translate(-1126.8 -198.275)"/></g><g transform="translate(69.983 36.805)"><path class="x" d="M1122.1,201.634a.231.231,0,0,1-.1-.441,5.483,5.483,0,0,1,4.443.006.231.231,0,1,1-.216.408,5.09,5.09,0,0,0-4.035.007A.231.231,0,0,1,1122.1,201.634Z" transform="translate(-1121.874 -200.706)"/></g></g><g transform="translate(898 9872)"><path class="l" d="M350.32,1651.81s0-6.21.885-8.275,4.13-10.474,4.13-10.474h12.686s2.36,7.671,2.508,10.178,0,8.571,0,8.571Z" transform="translate(-306.543 -1257.052)"/><path class="l" d="M469.373,1651.81s0-6.21-.885-8.275-4.13-10.474-4.13-10.474H451.671s-2.36,7.671-2.507,10.178,0,8.571,0,8.571Z" transform="translate(-345.048 -1257.052)"/><path class="d" d="M388.667,1087.9s-.447,13.829-2.217,20.024L372.44,1117.7l52.736,7.891L412.6,1108.214s-3.8-18.542-1.806-25.4S388.667,1087.9,388.667,1087.9Z" transform="translate(-315.166 -1041.73)"/><path class="m" d="M398.908,1095.639s4.169,10.039,12.025,9.817,9.643-9.1,9.643-9.1Z" transform="translate(-325.483 -1047.558)"/><path class="af" d="M387.858,1056.795s-2.537-12.663-4.307-16.5-3.245-20.947,16.374-21.832c0,0,7.524.885,11.654-1.622,0,0,0,2.507-1.032,3.392a13.041,13.041,0,0,1,12.1,4.278c5.31,5.9-3.539,26.553-3.1,31.42Z" transform="translate(-319.122 -1016.842)"/><path class="d" d="M406.811,1081.133c-5.692-.1-16.168-7.679-16.168-17.064v-14.646c0-3.427,2.389-6.231,5.31-6.231h21.714c2.92,0,5.31,2.8,5.31,6.231v13.817C422.979,1073.081,413.339,1081.248,406.811,1081.133Z" transform="translate(-322.262 -1027.114)"/><path class="af" d="M390.181,1055.124s.029-8.8,7-10.153,22.57,4.289,24.782-2.128-30.152-6.306-31.782-2.213S390.181,1055.124,390.181,1055.124Z" transform="translate(-321.799 -1024.994)"/><path class="n" d="M351.285,1311.3s2.22,67.777-1.1,106.449.024,92.491.024,92.491,10.615,5.853,22.12,0c0,0,12.619-74.71,12.539-92.491-.085-18.935,13.734-103.495,13.734-103.495Z" transform="translate(-305.918 -1131.626)"/><path class="n" d="M450.659,1510.167s-10.612,5.855-22.118,0c0,0-12.617-74.709-12.538-92.49.035-8-2.407-27.7-5.244-47.794-3.881-27.486-8.492-55.7-8.492-55.7l49.152-3.072s-4.053,67.894-.735,106.564S450.659,1510.167,450.659,1510.167Z" transform="translate(-326.793 -1131.553)"/><path class="ag" d="M430.17,1250.082s-20.954,4.058-40.072,4.058a193.814,193.814,0,0,1-24.609-1.881c-7.975-1.058-13.692-2.178-13.692-2.178s-4.249.372-1.74-20.573c1.907-15.941,1.31-30.332.885-45.139-.049-1.646-.013-3.594.089-5.762.815-17.264,6.037-48.343,10.014-50.011,0,0,5.917-2.2,16.369-3.271,0,.2,6.068,9.072,13.268,10.068,4.474-1.77,7.987-3.279,12.882-9.78a140.274,140.274,0,0,1,20.194,3.894s.752,3.293,3.593,60.415C428.48,1212.551,436.2,1250.158,430.17,1250.082Z" transform="translate(-306.132 -1059.13)"/><path class="y" d="M421.429,1440.175c.035-8-2.407-27.7-5.244-47.794,2.943-12,10.112-23.552,10.112-23.552C435.369,1394.275,421.429,1440.175,421.429,1440.175Z" transform="translate(-332.218 -1154.051)"/><path class="o" d="M304.022,1198.452c-.5.416,1.244,4.735,3.81,10.364,5.284,11.564,14.059,28.641,14.059,28.641a50.625,50.625,0,0,1-2.663,7.8c-14.763-11.6-24.282-21.467-30.359-29.035-8.541-10.643-10.293-16.745-10.293-16.745,32.872-66.911,56.005-69.378,56.005-69.378l-2.732,44.22S305.544,1197.187,304.022,1198.452Z" transform="translate(-278.576 -1060.99)"/><path class="o" d="M473.9,1268.185c-4.9,9.806-23.378,9.452-23.378,9.452-3.393-26.053-4.144-150.74-4.144-150.74a126.966,126.966,0,0,1,14.558,2.99c6,11.6,8.126,33.337,8.648,48.65.287,8.576.076,15.137-.24,16.783-.469,2.445.124,14.1,1.025,27.392C471.77,1243.453,473.9,1268.185,473.9,1268.185Z" transform="translate(-343.99 -1059.743)"/><path class="o" d="M369.544,1126.338s-1.239,125.026-4.63,151.079c0,0-18.474.354-23.375-9.448,0,0,7.589-76.944,6.392-83.2-.834-4.363,1.33-40.226,9.318-55.636A84.451,84.451,0,0,1,369.544,1126.338Z" transform="translate(-303.12 -1059.525)"/><path class="d" d="M345.924,1304.549s7.965-7.376,11.211-3.246,3.835,10.621,1.328,10.179-7.671-2.8-8.408-1.622-4.042,3.435-5.045,1.644S345.924,1304.549,345.924,1304.549Z" transform="translate(-304.36 -1127.239)"/><path class="d" d="M328.467,1287.747a50.643,50.643,0,0,1-2.664,7.8c-14.763-11.6-24.282-21.467-30.359-29.035,4.581-.34,11.267-1.978,18.963-7.4C319.692,1270.67,328.467,1287.747,328.467,1287.747Z" transform="translate(-285.152 -1111.28)"/><path class="o" d="M522.548,1199.894s-1.752,6.1-10.293,16.745c-6.076,7.568-15.6,17.437-30.358,29.035a50.682,50.682,0,0,1-2.664-7.8s8.776-17.077,14.059-28.641c2.567-5.629,4.31-9.948,3.811-10.364-1.182-.982-17.251-14.945-24.42-21.171l-3.407-2.966-1.642-43.563S489.677,1132.983,522.548,1199.894Z" transform="translate(-352.273 -1061.409)"/><path class="d" d="M480.508,1304.549s-7.965-7.376-11.211-3.246-3.835,10.621-1.328,10.179,7.671-2.8,8.408-1.622,4.042,3.435,5.045,1.644S480.508,1304.549,480.508,1304.549Z" transform="translate(-351.799 -1127.239)"/><path class="d" d="M486.641,1287.747a50.642,50.642,0,0,0,2.663,7.8c14.763-11.6,24.282-21.467,30.359-29.035-4.581-.34-11.267-1.978-18.963-7.4C495.416,1270.67,486.641,1287.747,486.641,1287.747Z" transform="translate(-359.683 -1111.28)"/><g transform="translate(70.123 28.119)"><g transform="translate(0 0)"><path class="n" d="M400.551,1071.1c-2.079,0-6.24-.462-6.968-4.076a3.273,3.273,0,0,1,.6-2.812,3.872,3.872,0,0,1,3.043-1.293h6.394a2.822,2.822,0,0,1,2.524,1.039c.772,1.16.179,2.9-.111,3.6-.995,2.378-2.365,3.487-4.31,3.492A11.463,11.463,0,0,1,400.551,1071.1Zm-3.329-7.76a3.456,3.456,0,0,0-2.718,1.139,2.869,2.869,0,0,0-.51,2.463c.374,1.854,1.766,3.038,4.14,3.521a12.67,12.67,0,0,0,3.547.166l.024,0c1.761,0,3.011-1.028,3.935-3.234.206-.494.827-2.182.149-3.2a2.442,2.442,0,0,0-2.174-.851Z" transform="translate(-393.497 -1062.924)"/></g><g transform="translate(15.829 0)"><path class="n" d="M425.408,1071.1a11.421,11.421,0,0,1-1.167-.053c-1.945,0-3.315-1.114-4.31-3.492-.291-.695-.884-2.436-.111-3.6a2.822,2.822,0,0,1,2.524-1.039h6.394a3.871,3.871,0,0,1,3.043,1.293,3.271,3.271,0,0,1,.6,2.812C431.648,1070.642,427.487,1071.1,425.408,1071.1Zm-3.065-7.76a2.44,2.44,0,0,0-2.173.851c-.679,1.02-.058,2.708.148,3.2.924,2.206,2.173,3.234,3.934,3.234l.025,0a12.67,12.67,0,0,0,3.547-.166c2.373-.483,3.765-1.667,4.14-3.521a2.867,2.867,0,0,0-.51-2.463,3.455,3.455,0,0,0-2.718-1.139Z" transform="translate(-419.438 -1062.924)"/></g><g transform="translate(11.885 1.946)"><path class="n" d="M413.226,1067.123a.252.252,0,0,1-.1-.481,5.971,5.971,0,0,1,4.835.007.252.252,0,0,1-.236.445,5.536,5.536,0,0,0-4.388.006A.247.247,0,0,1,413.226,1067.123Z" transform="translate(-412.974 -1066.113)"/></g></g></g><g transform="translate(544.778 9332.842)"><path class="d" d="M307.8,611.056l.014,2.626s-.715,8.209,9.393,9.408,18.4,1.044,18.126-5.291c-.911-4.9-2.542-12.519-2.61-16.577a28.55,28.55,0,0,1,.359-4.916l-19.588-.391-5.769.943Z" transform="translate(-13.911 -8.069)"/><path class="ah" d="M307.726,596.857l.075,14.2a16.571,16.571,0,0,0,7.06,1.558c9,0,14.821-6.6,17.863-11.393a28.55,28.55,0,0,1,.359-4.916l-19.588-.391Z" transform="translate(-13.911 -8.069)"/><path class="d" d="M333.549,586.808c-2.272,12.232-18.055,11.83-24.876,11.061-1.919-.214-3.127-.458-3.127-.458-2.164-.578-3.372-3.986-3.933-8.452-1.114-8.837.294-21.809,1.786-25.126,2.247-4.992,6.479-10.392,22.373-6.5S336.465,571.137,333.549,586.808Z" transform="translate(-12.876 -1.724)"/><path class="l" d="M350.79,1020.633H328.425a53.906,53.906,0,0,1,1.784-8.027,22.692,22.692,0,0,1,1.267-3.222c2.175-4.341,15.99-1.58,15.99-1.58s1.283,1.1,2.285,5.3A44.57,44.57,0,0,1,350.79,1020.633Z" transform="translate(-17.202 -73.412)"/><path class="l" d="M266.006,1011.854c-.061,3.043-.444,5.922-1.548,7.059H220.222c.562-1.6,2.154-4.008,6.7-4.745,5.161-.835,13.2-3.32,17.9-8.285a13.311,13.311,0,0,0,3.466-6.276c2.082-9.266,17.209,2.839,17.209,2.839A74.971,74.971,0,0,1,266.006,1011.854Z" transform="translate(0 -71.691)"/><path class="o" d="M299.9,874.405a69.822,69.822,0,0,0-1.11,8.171c-1.406,27.431-23.09,90.149-26.968,91.612-6,2.264-15.452-2.549-20.4-4.124a4.24,4.24,0,0,1-2.975-4.817c10.738-49.366,14.684-120.451,16.121-162.536a190.929,190.929,0,0,1,4.364-35.842s52.885-14.11,53.2,3.739C322.416,786.4,304.619,848.349,299.9,874.405Z" transform="translate(-4.474 -34.405)"/><path class="l" d="M302.966,874.405,267.637,802.71A190.933,190.933,0,0,1,272,766.868s52.885-14.11,53.2,3.739C325.479,786.4,307.682,848.349,302.966,874.405Z" transform="translate(-7.538 -34.405)"/><path class="o" d="M295.653,771.172,323.61,973.8s12.278,2.961,21.827.592c0,0,8.186-107.767,7.5-133.82s5.875-69.715-1.5-74.531S295.653,771.172,295.653,771.172Z" transform="translate(-11.992 -34.906)"/><path class="l" d="M297.983,550.466a52.588,52.588,0,0,0,15.248-4.126c6.7-2.912,15.146.3,17.889,1.74a4.083,4.083,0,0,0-.669-1.65,3.682,3.682,0,0,1,1.413,2.093c.127.093.184.158.151.18a4.718,4.718,0,0,1,2.293.148s-.628-.09-.852.314a.361.361,0,0,1-.1.111c10.448,5.049,11.413,21.559,8.05,25.379-4.044,4.6-8.895,14.948-8.895,14.948a8.872,8.872,0,0,1-1.034-6.489c.736-4.045-2.758-4.045-7.171-5.884s-.735-6.986-4.6-10.112-18.018-1.288-17.834-3.677C296.621,561.526,297.983,551,297.983,550.466Z" transform="translate(-12.337)"/><path class="ai" d="M332.3,626.12l-6.437,138.112s-53.723.878-52.189-11.28,19.365-122.6,19.365-122.6Z" transform="translate(-8.492 -12.871)"/><path class="aj" d="M364.2,756.1c.472,2.305.786,3.668.786,3.668-7.441,12.1-34.689,11.948-34.689,11.948-5.24-23.162-7.965-60.05-7.965-60.05l20.907-91.649,26.306,24.314s-1.992,14.83-4.455,29.92C363.15,686.195,362.05,745.2,364.2,756.1Z" transform="translate(-16.233 -11.9)"/><path class="aj" d="M291.481,620.346a69.948,69.948,0,0,0-17.571,4.608,27.517,27.517,0,0,0-9.5,6.271c-9.472,9.591-34.033,34.24-39.87,45.7-7.074,13.834,32.331,41.4,32.331,41.4a9.18,9.18,0,0,0,4.3.6c-1.858,15.3-3.944,29.416-2.708,35.442,2.234,10.888,12.305,14.545,12.305,13.707,0-.266,3.684-39.568,5.684-60.075,1.77-18.142,4.639-36.231,7.4-51.225a10.241,10.241,0,0,0,1.72-2.405,9.426,9.426,0,0,0,.094-7.119C288.842,631.074,291.481,620.346,291.481,620.346Zm-44.2,62.549a.319.319,0,0,1-.052-.209c0-1.992,7.6-6.394,15.825-11.58.105-.105.157-.159.157-.159l.02-.012c-.146,4.238-.134,8.4.118,12.268a156.864,156.864,0,0,1-.923,24.5C258.507,701.584,248.045,685.148,247.28,682.895Z" transform="translate(-0.551 -11.953)"/><g transform="translate(283.19 603.234)"><path class="ak" d="M340.454,619.224c.065-1.318-6.178-3.139-6.178-3.139s-7.145,9.907-18.919,10.079c0,0,3.356,6.53,7.309,8.22C322.666,634.384,340.065,627.051,340.454,619.224Z" transform="translate(-298.314 -614.51)"/><path class="ak" d="M312.979,626.326s-6.236-3.7-6.258-7.706c0,0-4.028-.5-5.787,1.449,0,0-1.479,6.869.483,10.859C301.417,630.928,310.4,629.561,312.979,626.326Z" transform="translate(-295.936 -614.904)"/><path class="al" d="M318.59,626.7l-8.457-2.027a1.281,1.281,0,0,0-1.074,1.473c.03,1.378,2.382,5.4,3.423,5.725S320.59,629.49,318.59,626.7Z" transform="translate(-297.312 -615.875)"/><path class="ai" d="M339.468,618.246c.066-1.318-4.16-4.034-4.16-4.034s-8.178,9.559-19.952,9.73c0,0,3.356,6.53,7.309,8.22C322.666,632.162,339.08,626.073,339.468,618.246Z" transform="translate(-298.314 -614.212)"/><path class="ai" d="M312.989,624.391s-6.308-3.343-6.329-7.351c0,0-3.807,1.675-5.567,3.628a11.574,11.574,0,0,0,.333,8.326S310.407,627.626,312.989,624.391Z" transform="translate(-295.945 -614.662)"/><g transform="translate(0 13.475)"><path class="am" d="M295.6,721.759a13.03,13.03,0,0,0,4.151,8.425l3.746,3.452a2.194,2.194,0,0,0,3.21-.257l4.641-5.893a7.829,7.829,0,0,0,1.639-5.583c-.435-4.458-1.243-13.051-1.891-21.343-.526-6.719-.949-13.246-.981-17.217-.1-12.678,2.413-53.108,2.413-53.108l-3.039.159a162.76,162.76,0,0,0-11.5,37.047,141.382,141.382,0,0,0-2.1,16.646S294.306,707.178,295.6,721.759Z" transform="translate(-295.092 -630.234)"/><path class="al" d="M295.6,728.792a13.03,13.03,0,0,0,4.151,8.425l3.746,3.452a2.194,2.194,0,0,0,3.21-.257l4.641-5.893a7.829,7.829,0,0,0,1.639-5.583c-.435-4.458-1.243-13.051-1.891-21.343-8.4-9.436-11.8-22.477-13.108-33.12a141.384,141.384,0,0,0-2.1,16.646S294.306,714.211,295.6,728.792Z" transform="translate(-295.092 -637.267)"/></g></g><path class="d" d="M260.154,738.39a5.814,5.814,0,0,1,6.577-5.817,3.592,3.592,0,0,1,2.441,1.349c2.4,3.188,4.674,12.464.43,12.9-1.727.177-3.946-1.035-5.655-2.334-1.737-1.319-3.793-3.385-3.793-5.566Z" transform="translate(-6.348 -29.784)"/><path class="d" d="M367.95,744.323s-5.537,2.769-8.9,1.384-4.05-2.232-7.807,2.045-4.267,7.333-3.476,8.915,8.807-1.984,10.541-1.687c5.2.887,9.539-3.493,11.436-5.938C370.888,747.568,367.8,746.853,367.95,744.323Z" transform="translate(-20.226 -31.662)"/><path class="aj" d="M347.19,620.013s22.056,2.442,27.258,12.046,32.247,48.531,31.363,64.706-36.9,34.316-36.9,34.316-7.975-3.37-8.095-7,24.9-25.3,23.379-29.342-29.06-36.03-31.718-46.576S347.19,620.013,347.19,620.013Z" transform="translate(-20.185 -11.9)"/><path class="l" d="M336.364,614.212s-16.744,70.13-14.079,96.547c0,0,6.156-28.231,20.97-51.354,0,0-5.406-4.754-5.113-6.508a18.515,18.515,0,0,1,7.907-.388s-.431-30.23-2.859-33.423A17.691,17.691,0,0,0,336.364,614.212Z" transform="translate(-16.18 -10.978)"/><path class="l" d="M304.428,617.04s-16.593,68.527-18.009,90.429c0,0,1.679-39.082,1.513-50.345,0,0,6.954-3.682,6.954-4.973s-7.419-4.785-7.419-4.785,4.7-24.068,7.261-26.719S304.428,617.04,304.428,617.04Z" transform="translate(-10.524 -11.428)"/><path class="d" d="M363.408,745.529a20.419,20.419,0,0,1-3-2.437c-.707-.875-2.342-1.926-2.342-.759s2.342,5.488,2.342,5.488Z" transform="translate(-21.914 -31.264)"/></g></g></svg>